<?xml version="1.0" standalone="no"?>
<!DOCTYPE svg PUBLIC "-//W3C//DTD SVG 20010904//EN"
 "http://www.w3.org/TR/2001/REC-SVG-20010904/DTD/svg10.dtd">
<svg version="1.0" xmlns="http://www.w3.org/2000/svg"
 width="512.000000pt" height="512.000000pt" viewBox="0 0 512.000000 512.000000"
 preserveAspectRatio="xMidYMid meet">
<metadata>
Created by potrace 1.14, written by Peter Selinger 2001-2017
</metadata>
<g transform="translate(0.000000,512.000000) scale(0.100000,-0.100000)"
fill="#000000" stroke="none">
<path d="M2531 5103 c-18 -12 -22 -13 -17 -2 6 11 4 10 -6 -1 -7 -8 -20 -16
-28 -18 -8 -2 -18 -10 -23 -17 -4 -7 -18 -12 -32 -11 -13 2 -23 -2 -22 -8 1
-6 -10 -12 -26 -14 -15 -2 -25 -8 -21 -13 3 -6 0 -10 -7 -8 -27 3 -40 -1 -34
-11 3 -5 -1 -10 -10 -10 -8 0 -18 -7 -21 -15 -5 -12 -9 -13 -21 -4 -11 10 -13
9 -11 -2 2 -9 -6 -14 -24 -13 -21 0 -25 -3 -17 -13 8 -9 6 -11 -10 -8 -11 2
-20 1 -20 -3 3 -20 -2 -25 -11 -12 -8 13 -10 12 -10 -3 0 -10 -4 -16 -9 -13
-10 7 -61 -16 -61 -27 0 -5 -4 -6 -9 -3 -5 3 -12 -1 -15 -10 -3 -8 -10 -12
-16 -9 -5 3 -10 1 -10 -6 0 -7 -3 -10 -6 -6 -4 3 -22 -5 -42 -18 -19 -13 -39
-22 -44 -19 -4 3 -8 0 -8 -6 0 -6 -4 -8 -10 -5 -5 3 -10 1 -10 -6 0 -6 -8 -9
-19 -6 -14 3 -18 1 -14 -9 3 -9 -2 -12 -16 -9 -12 2 -19 0 -16 -6 4 -5 -1 -9
-9 -9 -9 0 -16 -5 -16 -12 0 -6 -3 -9 -6 -5 -4 3 -13 -1 -21 -9 -9 -8 -22 -13
-29 -10 -8 3 -13 0 -11 -7 1 -7 -8 -11 -20 -11 -12 1 -21 -3 -20 -9 1 -6 -5
-12 -13 -12 -8 0 -14 -6 -13 -12 1 -6 -6 -9 -17 -6 -12 3 -20 0 -20 -6 0 -7
-4 -10 -8 -7 -12 7 -63 -29 -55 -39 5 -4 3 -5 -4 -1 -12 7 -63 -12 -63 -24 0
-8 -39 -23 -52 -21 -5 1 -8 -4 -8 -10 0 -5 -4 -8 -9 -5 -5 3 -11 -1 -15 -9 -3
-8 -12 -12 -21 -9 -8 4 -15 1 -15 -7 0 -7 -3 -10 -6 -6 -4 3 -13 -1 -21 -9 -8
-8 -19 -12 -24 -9 -5 4 -7 0 -4 -7 3 -9 -4 -14 -22 -15 -15 0 -29 -6 -31 -12
-2 -6 -11 -11 -21 -11 -9 0 -23 -6 -30 -12 -6 -7 -15 -13 -19 -14 -20 -2 -41
-17 -36 -25 3 -5 -1 -6 -9 -3 -8 3 -18 1 -22 -5 -3 -6 -15 -11 -26 -11 -11 0
-17 -4 -14 -10 9 -14 -9 -12 -24 3 -10 10 -11 8 -5 -6 4 -12 2 -17 -7 -15 -8
2 -13 -2 -12 -9 2 -7 -6 -10 -17 -8 -11 2 -19 -1 -17 -8 1 -7 -4 -11 -10 -10
-7 2 -13 -3 -13 -10 0 -8 -4 -7 -10 3 -8 13 -11 11 -16 -7 -4 -13 -11 -20 -20
-16 -8 3 -14 0 -14 -6 0 -6 -11 -11 -25 -11 -14 0 -29 -8 -35 -20 -6 -11 -15
-18 -20 -15 -4 3 -15 -1 -23 -9 -8 -8 -17 -13 -20 -10 -9 9 -48 -22 -39 -32 4
-4 -2 -2 -13 6 -11 8 -17 11 -13 6 10 -11 -14 -35 -29 -29 -7 3 -13 1 -13 -5
0 -5 -11 -13 -25 -16 -17 -4 -23 -11 -19 -19 4 -7 4 -9 -1 -5 -4 4 -15 2 -23
-5 -13 -10 -15 -9 -8 3 4 8 1 7 -7 -3 -9 -10 -18 -18 -21 -18 -20 3 -26 0 -21
-8 3 -5 0 -13 -6 -17 -8 -4 -9 -3 -5 4 10 16 1 15 -34 -3 -17 -9 -30 -20 -30
-26 0 -6 -5 -7 -10 -4 -6 3 -10 1 -10 -5 0 -7 -7 -10 -15 -6 -8 3 -15 2 -15
-3 0 -5 -12 -17 -28 -27 -26 -17 -26 -17 -12 0 9 12 1 9 -24 -8 -21 -14 -43
-23 -49 -19 -5 3 -7 2 -4 -4 3 -5 -8 -18 -25 -28 -22 -12 -29 -14 -23 -4 4 8
-5 2 -22 -13 -16 -16 -33 -28 -38 -28 -5 0 0 7 11 15 10 8 15 15 11 15 -15 0
-88 -80 -82 -90 3 -5 0 -10 -7 -10 -8 0 -9 -3 -3 -8 6 -4 10 -20 10 -37 0 -16
-4 -33 -10 -37 -7 -5 -7 -8 0 -8 6 0 10 -72 10 -195 0 -123 -4 -195 -10 -195
-7 0 -7 -3 0 -8 6 -4 10 -20 10 -37 0 -16 -4 -33 -10 -37 -7 -5 -7 -8 0 -8 6
0 10 -72 10 -195 0 -123 -4 -195 -10 -195 -7 0 -7 -3 0 -8 6 -4 10 -20 10 -37
0 -16 -4 -33 -10 -37 -7 -5 -7 -8 0 -8 6 0 10 -72 10 -195 0 -123 -4 -195 -10
-195 -7 0 -7 -3 0 -8 6 -4 10 -20 10 -37 0 -16 -4 -33 -10 -37 -7 -5 -7 -8 0
-8 6 0 10 -72 10 -195 0 -123 -4 -195 -10 -195 -7 0 -7 -3 0 -8 6 -4 10 -20
10 -37 0 -16 -4 -33 -10 -37 -7 -5 -7 -8 0 -8 6 0 10 -71 10 -192 0 -117 -4
-196 -10 -200 -7 -5 -7 -8 0 -8 6 0 9 -23 7 -55 -2 -30 0 -55 5 -55 4 0 14
-14 21 -30 8 -17 17 -28 22 -25 4 3 13 -2 20 -11 11 -12 15 -12 21 -2 6 9 9 7
9 -7 0 -15 3 -17 9 -7 7 11 9 11 14 -2 4 -9 13 -13 22 -10 10 4 15 2 13 -7 -2
-8 7 -15 20 -17 12 -2 20 -8 16 -13 -3 -6 2 -9 12 -7 12 2 18 -2 16 -11 -3
-12 -1 -12 14 0 10 8 15 9 11 2 -4 -7 5 -16 23 -25 16 -7 30 -16 30 -20 0 -5
3 -7 8 -7 22 4 42 -2 37 -11 -3 -5 1 -10 10 -10 10 0 13 -5 9 -12 -5 -8 0 -7
11 2 11 9 16 10 11 2 -4 -7 -1 -12 8 -12 9 0 16 -5 16 -11 0 -5 4 -8 9 -4 5 3
12 1 16 -5 4 -6 11 -8 16 -5 5 4 9 -1 9 -9 0 -10 6 -13 17 -9 11 4 14 3 9 -5
-5 -8 0 -12 13 -12 12 0 21 -5 21 -11 0 -5 5 -7 10 -4 6 3 13 -1 16 -9 3 -9
10 -13 16 -10 5 3 15 -1 21 -10 7 -9 22 -18 35 -19 12 0 22 -5 22 -10 0 -4 4
-6 9 -3 5 3 11 -1 15 -9 3 -8 12 -15 21 -15 8 0 15 -5 15 -11 0 -5 4 -8 9 -4
5 3 17 -3 27 -12 9 -10 22 -18 28 -19 6 0 17 -2 25 -2 8 -1 11 -8 7 -18 -3 -9
-2 -12 5 -9 5 4 16 1 24 -5 8 -6 19 -9 25 -5 5 3 10 -1 10 -9 0 -9 7 -13 19
-11 11 2 27 -5 37 -16 9 -10 22 -19 27 -19 5 0 16 -8 24 -17 8 -10 11 -12 8
-5 -6 11 -3 11 13 1 12 -7 18 -18 14 -24 -3 -5 2 -4 11 4 15 12 18 10 26 -10
5 -13 10 -20 10 -16 1 4 11 2 23 -5 13 -7 27 -11 32 -10 5 2 6 -3 3 -11 -5
-14 -1 -15 48 -18 13 -1 22 -6 19 -11 -3 -5 3 -12 15 -15 12 -3 21 -9 21 -14
0 -5 7 -6 15 -3 9 4 15 0 15 -9 0 -8 7 -18 16 -21 8 -3 12 -2 9 4 -3 6 -1 10
4 10 6 0 11 -8 11 -17 0 -15 2 -16 10 -3 8 13 10 12 10 -2 0 -10 6 -17 13 -15
6 1 11 -3 10 -9 -1 -7 6 -10 17 -7 11 3 20 0 20 -6 0 -6 7 -11 15 -11 8 0 15
-5 15 -11 0 -5 5 -7 11 -4 5 4 21 -5 34 -19 15 -17 25 -21 28 -13 4 9 6 9 6 0
1 -7 6 -13 12 -13 6 0 17 -7 26 -15 8 -8 19 -13 24 -10 5 4 9 1 9 -6 0 -7 8
-9 21 -6 12 3 18 3 15 0 -11 -11 15 -32 31 -26 11 4 14 2 9 -5 -4 -7 -1 -12 9
-12 9 0 14 -4 11 -8 -3 -5 0 -9 7 -9 24 -1 42 -8 57 -23 8 -8 24 -17 35 -18
11 -2 27 -10 36 -18 9 -8 19 -11 22 -7 4 3 7 1 7 -5 0 -7 7 -12 15 -12 8 0 15
-4 15 -10 0 -5 9 -10 20 -10 11 0 20 -4 20 -10 0 -5 7 -10 15 -10 8 0 15 -5
15 -11 0 -5 5 -7 10 -4 6 3 10 1 10 -5 0 -7 6 -10 14 -7 8 3 16 0 19 -6 2 -7
26 -23 53 -37 27 -13 57 -33 67 -44 10 -12 16 -15 12 -8 -3 6 -1 12 4 12 6 0
11 -5 11 -12 0 -6 3 -9 6 -5 3 3 15 -4 26 -15 11 -11 26 -17 33 -14 7 2 19 -2
25 -10 7 -8 21 -14 31 -14 11 0 19 -7 19 -15 0 -8 3 -15 8 -14 16 2 52 -14 52
-24 0 -6 3 -7 7 -4 3 4 12 2 20 -4 10 -9 13 -8 13 1 0 10 3 10 15 0 11 -9 19
-10 28 -1 10 8 17 7 25 -1 9 -9 12 -9 12 1 0 8 6 11 15 7 8 -3 15 -1 15 4 0 6
3 9 8 9 20 -3 43 2 38 9 -2 4 4 14 16 21 15 9 18 10 13 0 -5 -8 -4 -10 3 -5 7
4 12 14 12 22 0 12 4 12 20 4 16 -9 20 -8 20 5 0 9 4 14 9 11 4 -3 19 3 31 14
22 19 35 24 53 21 4 0 7 4 7 9 0 6 7 10 15 10 8 0 15 5 15 11 0 5 5 7 10 4 6
-3 10 -2 10 3 0 6 8 9 18 8 10 0 16 5 14 13 -2 8 3 11 13 8 8 -4 15 -2 15 4 0
6 6 9 14 6 8 -3 20 1 27 9 7 8 18 13 25 10 8 -3 13 0 11 6 -1 7 4 12 11 13 7
0 17 7 22 15 5 8 10 11 10 7 0 -5 7 -1 16 7 8 9 24 16 35 16 11 0 17 5 14 10
-4 6 5 10 20 10 19 0 29 6 32 21 4 16 8 17 14 7 7 -10 9 -11 9 0 0 7 4 11 9 7
6 -3 14 3 20 12 6 10 11 14 11 8 0 -5 5 -3 10 5 7 11 10 12 10 2 0 -11 3 -11
15 0 38 34 47 39 61 34 10 -4 13 -2 8 6 -5 8 -2 9 9 5 11 -4 17 -1 17 9 0 8 4
13 9 10 5 -3 14 1 21 9 7 8 16 12 21 9 5 -3 9 0 9 5 0 6 9 11 20 11 11 0 20 5
20 10 0 6 9 10 21 10 13 0 18 4 13 12 -5 8 -2 9 9 5 10 -3 17 -2 17 3 0 6 6 9
13 7 6 -1 11 3 10 10 -2 8 4 10 14 6 11 -4 14 -3 9 5 -5 8 -1 10 10 5 13 -5
15 -3 9 7 -5 9 -4 11 4 6 6 -4 25 3 43 15 18 13 28 17 24 8 -4 -7 2 -3 14 11
12 14 19 19 15 13 -3 -7 -1 -13 4 -13 6 0 11 5 11 10 0 6 7 10 15 10 9 0 18 7
21 15 4 8 10 15 16 15 5 0 6 -6 3 -12 -4 -7 2 -3 13 10 11 12 30 22 42 22 14
0 19 4 14 13 -4 6 -4 9 1 5 10 -9 65 19 65 33 0 6 4 8 9 4 5 -3 13 0 16 6 4 5
14 8 22 5 8 -3 11 -1 8 4 -3 5 6 12 20 16 13 3 22 11 19 16 -4 6 2 7 16 3 15
-5 20 -4 16 4 -4 6 0 11 9 11 9 0 27 7 40 16 13 9 29 13 34 9 6 -3 8 0 5 8 -3
8 0 18 7 23 8 5 10 3 4 -5 -5 -9 -1 -9 14 1 12 7 21 16 21 20 0 4 6 5 14 2 7
-3 16 2 19 10 4 9 11 16 17 16 6 0 8 -5 4 -12 -5 -7 7 -1 25 15 18 15 36 25
41 22 4 -3 11 2 14 11 3 8 10 12 16 9 5 -3 10 -1 10 5 0 6 5 8 10 5 6 -3 10
-2 10 2 0 5 10 10 22 10 13 1 28 9 34 18 7 9 21 18 31 20 10 1 17 8 15 16 -3
10 0 10 12 -1 14 -10 16 -10 16 5 0 10 3 15 6 12 4 -4 20 3 35 14 16 11 33 18
38 15 5 -4 11 -1 13 4 2 6 12 13 23 14 11 2 19 9 18 15 -2 6 6 11 17 11 11 0
20 5 20 10 0 6 7 10 15 10 8 0 15 4 15 9 0 6 9 8 20 6 13 -3 18 0 14 7 -5 8
-1 9 10 5 10 -4 15 -3 11 3 -3 6 -1 10 5 10 6 0 8 5 4 13 -5 8 -2 8 9 -2 12
-9 17 -10 17 -2 0 7 4 10 9 7 5 -3 14 1 21 9 7 8 16 13 20 10 4 -3 10 2 14 10
3 8 15 15 27 15 15 0 19 5 15 15 -3 9 0 15 9 15 18 0 27 49 22 118 -2 28 0 52
5 52 5 0 5 7 -1 17 -5 10 -5 26 -1 39 5 12 6 24 3 27 -8 9 -9 237 0 237 4 0 4
8 -2 17 -5 10 -5 26 -1 39 5 12 6 24 3 27 -8 9 -9 237 0 237 4 0 4 8 -2 17 -5
10 -5 26 -1 39 5 12 6 24 3 27 -8 9 -9 237 0 237 4 0 4 8 -2 17 -5 10 -5 26
-1 39 5 12 6 24 3 27 -8 9 -9 237 0 237 4 0 4 8 -2 17 -5 10 -5 26 -1 39 5 12
6 24 3 27 -8 9 -9 237 0 237 4 0 4 8 -2 17 -5 10 -5 26 -1 39 5 12 6 24 3 27
-8 9 -9 237 0 237 4 0 4 8 -2 17 -5 10 -5 26 -1 39 5 12 6 24 3 27 -8 9 -9
237 0 237 4 0 4 8 -2 17 -5 10 -5 26 0 40 5 13 4 25 -1 28 -5 3 -7 12 -3 20 7
21 -6 67 -17 60 -6 -3 -10 1 -10 9 0 8 -5 18 -12 22 -7 5 -9 2 -4 -7 4 -8 -1
-4 -12 8 -11 12 -22 19 -26 16 -3 -4 -6 -1 -6 6 0 7 -4 9 -10 6 -5 -3 -10 -1
-10 5 0 6 -4 8 -10 5 -5 -3 -10 -1 -10 5 0 7 -7 9 -16 6 -8 -3 -12 -2 -9 4 3
6 -2 10 -12 10 -10 0 -24 9 -31 20 -7 12 -18 17 -29 13 -10 -4 -14 -2 -10 4 4
6 0 14 -9 17 -9 4 -13 2 -8 -5 4 -8 0 -7 -15 0 -11 7 -21 17 -21 23 0 6 -3 8
-7 5 -3 -4 -12 1 -20 11 -9 10 -12 11 -7 2 5 -10 0 -9 -14 4 -12 11 -22 15
-22 11 0 -5 -7 0 -16 11 -8 10 -13 12 -9 4 4 -10 2 -9 -8 3 -8 9 -22 17 -31
17 -10 0 -14 5 -11 10 4 6 -5 10 -20 10 -14 0 -24 4 -20 9 5 9 -32 27 -47 23
-5 -1 -13 7 -20 17 -6 10 -17 17 -24 14 -7 -3 -23 5 -35 16 -13 12 -29 21 -36
21 -8 0 -11 5 -7 12 5 7 3 8 -5 3 -7 -4 -23 3 -38 16 -15 13 -23 17 -19 9 4
-8 1 -7 -8 4 -8 10 -19 15 -25 11 -6 -3 -11 -1 -11 5 0 6 -4 8 -10 5 -5 -3
-10 -1 -10 4 0 6 -7 11 -15 11 -9 0 -18 6 -21 14 -3 8 -12 12 -20 9 -8 -3 -14
0 -14 6 0 6 -5 11 -11 11 -7 0 -18 8 -25 18 -10 12 -13 13 -14 3 0 -9 -10 -4
-26 13 -15 14 -37 26 -50 26 -14 0 -24 6 -24 14 0 10 -7 12 -22 8 -14 -3 -19
-2 -14 6 5 8 0 12 -14 12 -11 0 -23 7 -26 15 -4 8 -10 12 -15 9 -5 -3 -9 0 -9
7 0 7 -3 10 -6 6 -4 -3 -13 1 -21 9 -8 8 -19 12 -24 9 -5 -4 -9 -1 -9 5 0 6
-4 8 -10 5 -5 -3 -10 -1 -10 4 0 6 -7 11 -15 11 -8 0 -15 4 -15 10 0 5 -10 14
-21 21 -17 9 -20 8 -13 -3 4 -7 -2 -5 -13 5 -11 9 -23 14 -28 10 -4 -5 -6 -1
-2 9 4 12 0 15 -19 13 -14 -1 -24 3 -24 11 0 7 -5 16 -12 20 -7 5 -8 3 -3 -5
5 -9 1 -9 -14 1 -12 7 -21 16 -21 21 0 4 -4 5 -10 2 -5 -3 -10 -1 -10 5 0 6
-4 8 -10 5 -5 -3 -10 -1 -10 4 0 6 -3 10 -7 10 -20 -3 -34 2 -28 11 3 6 -3 10
-14 10 -11 0 -23 5 -26 10 -4 6 -11 8 -16 5 -5 -4 -9 1 -9 10 0 11 -6 15 -19
10 -12 -3 -21 0 -25 10 -3 8 -12 15 -20 15 -8 0 -21 8 -28 19 -7 10 -21 17
-30 15 -10 -1 -18 4 -18 11 0 8 -8 12 -20 10 -11 -2 -20 0 -20 6 0 5 -6 8 -12
7 -7 -2 -12 3 -10 10 1 8 -2 11 -7 8 -5 -4 -16 1 -24 9 -12 11 -17 12 -20 2
-3 -7 -6 -4 -6 6 -1 10 -5 16 -10 12 -5 -3 -17 2 -25 11 -9 8 -16 12 -16 8 0
-4 -6 0 -13 10 -7 9 -19 16 -27 14 -8 -2 -14 2 -13 7 1 6 -10 12 -25 13 -15 1
-34 11 -43 21 -9 11 -19 17 -23 14 -3 -4 -6 -1 -6 5 0 6 -7 9 -17 5 -11 -4
-14 -3 -9 5 5 8 0 12 -13 12 -10 0 -21 5 -23 12 -2 6 -13 12 -24 13 -28 3 -55
16 -49 24 2 4 -11 14 -30 21 -19 8 -35 18 -35 23 0 5 -9 7 -20 4 -13 -3 -20 0
-20 9 0 8 -4 14 -10 14 -18 0 -25 3 -44 22 -11 10 -26 18 -33 18 -7 0 -13 5
-13 12 0 9 -3 9 -12 0 -9 -9 -15 -7 -25 6 -8 9 -12 11 -8 5 3 -7 3 -13 -2 -14
-4 0 -16 -2 -26 -4 -9 -2 -15 1 -11 6 3 5 10 6 16 3 7 -4 8 -2 4 4 -9 15 -7
15 -35 -5z"/>
</g>
</svg>
